<svg width="18" height="18" viewBox="0 0 18 18" fill="none" xmlns="http://www.w3.org/2000/svg">
<path fill-rule="evenodd" clip-rule="evenodd" d="M7.07319 17.7216C7.68188 18.0815 8.43536 18.0932 9.05495 17.7524L10.8731 16.7524C11.5122 16.4009 11.9093 15.7294 11.9093 15L11.9093 8.70858L17.3865 3.44161C17.9747 2.87597 18.1603 2.00969 17.8554 1.25274C17.5505 0.49579 16.8163 -4.37237e-07 16.0002 -5.08579e-07L2.00021 1.74851e-07C1.18416 1.0351e-07 0.449949 0.495792 0.145049 1.25274C-0.159851 2.00969 0.0257149 2.87597 0.613927 3.44161L6.09111 8.70858L6.09111 16C6.09111 16.7071 6.46451 17.3617 7.07319 17.7216ZM9.9093 15L8.09111 16L8.09111 8.28286C8.09111 8.10262 8.04245 7.92752 7.95257 7.77504C7.90682 7.69742 7.85039 7.62566 7.78425 7.56206L2.00021 2L16.0002 2L10.2162 7.56206C10.15 7.62566 10.0936 7.69742 10.0478 7.77504C9.95796 7.92752 9.9093 8.10262 9.9093 8.28286L9.9093 15Z" fill="#54576F"/>
</svg>
