<svg width="20" height="20" viewBox="0 0 20 20" fill="none" xmlns="http://www.w3.org/2000/svg">
<path fill-rule="evenodd" clip-rule="evenodd" d="M2.5 2C2.22349 2 2 2.2238 2 2.49958V10.2286V12V14V15C2 16.6569 3.34315 18 5 18C6.84895 18 8.34783 16.5011 8.34783 14.6522V14.0495C8.34783 13.4699 8.81771 13 9.39733 13H13V3C13 2.44772 12.5523 2 12 2H2.5ZM0 10.2286V12V14V15V15.1143H0.00128041C0.0620297 17.8229 2.27677 20 5 20H14C17.2734 20 20 17.3488 20 14.0495C20 13.4699 19.5301 13 18.9505 13H15V3C15 1.34315 13.6569 0 12 0H2.5C1.11966 0 0 1.1185 0 2.49958V10.2286ZM9.17053 18H14C15.8636 18 17.4464 16.7155 17.8816 15H15H14.5H10.3367C10.264 16.132 9.83916 17.1681 9.17053 18ZM8.49976 4C8.49976 3.44772 8.05204 3 7.49976 3C6.94747 3 6.49976 3.44772 6.49976 4V4.35632C5.36915 4.5179 4.5 5.49018 4.5 6.66546C4.5 7.95379 5.5444 8.99819 6.83273 8.99819H8.1691C8.35286 8.99819 8.50183 9.14716 8.50183 9.33092C8.50183 9.51469 8.35286 9.66366 8.1691 9.66366H5.83349C5.2812 9.66366 4.83349 10.1114 4.83349 10.6637C4.83349 11.2159 5.2812 11.6637 5.83349 11.6637H6.49976V11.9964C6.49976 12.5487 6.94747 12.9964 7.49976 12.9964C8.05204 12.9964 8.49976 12.5487 8.49976 11.9964V11.6404C9.63149 11.4798 10.5018 10.507 10.5018 9.33092C10.5018 8.04259 9.45743 6.99819 8.1691 6.99819H6.83273C6.64897 6.99819 6.5 6.84923 6.5 6.66546C6.5 6.4817 6.64897 6.33273 6.83273 6.33273H9.16834C9.72063 6.33273 10.1683 5.88502 10.1683 5.33273C10.1683 4.78045 9.72063 4.33273 9.16834 4.33273H8.49976V4Z" fill="#9696BB"/>
</svg>
