<svg width="20" height="18" viewBox="0 0 20 18" fill="none" xmlns="http://www.w3.org/2000/svg">
<path fill-rule="evenodd" clip-rule="evenodd" d="M19 6.55773C19 5.0609 17.7943 3.83259 16.2584 3.70763L15.6224 1.93532C15.0695 0.394627 13.2812 -0.395792 11.6908 0.197587L2.13569 3.76269C2.04025 3.7983 1.95378 3.84635 1.87753 3.90413C0.776754 4.32788 0 5.35631 0 6.55773V15.1394C0 16.7193 1.34315 18 3 18L16 18C17.6569 18 19 16.7193 19 15.1394V12.9773C19.5978 12.6475 20 12.0312 20 11.3253V9.4183C20 8.71242 19.5978 8.09612 19 7.76638V6.55773ZM17 7.51125V6.55773C17 6.03112 16.5523 5.60421 16 5.60421L3 5.60421C2.44772 5.60421 2 6.03112 2 6.55773L2 15.1394C2 15.666 2.44772 16.093 3 16.093L16 16.093C16.5523 16.093 17 15.666 17 15.1394V13.2324H16C14.3431 13.2324 13 11.9517 13 10.3718C13 8.79198 14.3431 7.51126 16 7.51125H17ZM13.7301 2.55276L14.1408 3.69716L7.7999 3.69717L12.4196 1.97351C12.9497 1.77572 13.5458 2.03919 13.7301 2.55276ZM15 10.3718C15 9.84521 15.4477 9.4183 16 9.4183H18V11.3253H16C15.4477 11.3253 15 10.8984 15 10.3718Z" fill="#5273E2"/>
</svg>


